{"title":"Irumbu Kuthirai (2014) TC Rip - XviD MP3 1CD - Shammu","uid":10927594,"size":727229674,"categoryP":"video","categoryS":"movies","magnet":"?xt=urn:btih:8269f5764b5005b55ccacabc43de82fc59c9474b&amp;dn=Irumbu+Kuthirai+%282014%29+TC+Rip+-+XviD+MP3+1CD+-+Shammu&amp;tr=udp%3A%2F%2Ftracker.openbittorrent.com%3A80&amp;tr=udp%3A%2F%2Fopen.demonii.com%3A1337&amp;tr=udp%3A%2F%2Ftracker.coppersurfer.tk%3A6969&amp;tr=udp%3A%2F%2Fexodus.desync.com%3A6969","seeders":1,"leechers":0,"uploader":"TeamXDN","files":-1,"time":1409377047,"description":"Irumbu Kuthirai (2014) TC Rip - XviD MP3 1CD - Shammu\n\nFormat : AVI\nFormat/Info : Audio Video Interleave\nFile size : 694 MiB\nDuration : 1h 58mn\nOverall bit rate : 818 Kbps\n\nVideo\nID : 0\nFormat : MPEG-4 Visual\nFormat profile : Advanced Simple@L5\nFormat settings, BVOP : 2\nFormat settings, QPel : Yes\nFormat settings, GMC : No warppoints\nFormat settings, Matrix : Default (H.263)\nCodec ID : XVID\nCodec ID/Hint : XviD\nDuration : 1h 58mn\nBit rate : 732 Kbps\nWidth : 608 pixels\nHeight : 256 pixels\nDisplay aspect ratio : 2.40:1\nFrame rate : 25.000 fps\nColor space : YUV\nChroma subsampling : 4:2:0\nBit depth : 8 bits\nScan type : Progressive\nCompression mode : Lossy\nBits/(Pixel*Frame) : 0.188\nStream size : 621 MiB (89%)\nWriting library : XviD 1.2.1 (UTC 2008-12-04)\n\nAudio\nID : 1\nFormat : MPEG Audio\nFormat version : Version 1\nFormat profile : Layer 3\nMode : Joint stereo\nMode extension : MS Stereo\nCodec ID : 55\nCodec ID/Hint : MP3\nDuration : 1h 58mn\nBit rate mode : Constant\nBit rate : 80.0 Kbps\nChannel(s) : 2 channels\nSampling rate : 32.0 KHz\nCompression mode : Lossy\nStream size : 67.8 MiB (10%)\nAlignment : Aligned on interleaves\nInterleave, duration : 160 ms (4.00 video frames)","torrent":{"xt":"urn:btih:8269f5764b5005b55ccacabc43de82fc59c9474b","amp;dn":"Irumbu+Kuthirai+%282014%29+TC+Rip+-+XviD+MP3+1CD+-+Shammu","amp;tr":["udp%3A%2F%2Ftracker.openbittorrent.com%3A80","udp%3A%2F%2Fopen.demonii.com%3A1337","udp%3A%2F%2Ftracker.coppersurfer.tk%3A6969","udp%3A%2F%2Fexodus.desync.com%3A6969"],"infoHash":"8269f5764b5005b55ccacabc43de82fc59c9474b","infoHashBuffer":{"type":"Buffer","data":[130,105,245,118,75,80,5,181,92,202,202,188,67,222,130,252,89,201,71,75]},"announce":[],"urlList":[]}}